<svg width="605" height="675" viewBox="0 0 605 675" fill="none" xmlns="http://www.w3.org/2000/svg">
<path d="M-466 665.735C-466 296.81 -182.225 3.00005 186.886 3.00011C187.329 3.00011 187.772 3.00055 188.215 3.00141" stroke="#FF0000" stroke-width="5"/>
<path d="M188.216 3.00015C416.713 3.0002 601.946 188.14 601.946 416.522C601.946 416.796 601.946 417.07 601.946 417.344" stroke="#FF0000" stroke-width="5"/>
<path d="M601.88 416.978C601.88 557.8 488.866 672.326 348.989 672.326C348.821 672.326 347.828 672.326 347.66 672.326" stroke="#FF0000" stroke-width="5"/>
<path d="M349.765 672.326C260.779 672.326 188.643 602.101 188.643 513.801C188.643 513.695 188.642 513.069 188.643 512.963" stroke="#FF0000" stroke-width="5"/>
<path d="M188.216 512.963C188.216 459.598 230.876 417.345 283.882 417.345" stroke="#FF0000" stroke-width="5"/>
<path d="M283.883 417.345C319.477 417.345 347.66 445.77 347.66 481.09" stroke="#FF0000" stroke-width="5"/>
<path d="M347.66 481.09C347.66 498.878 333.44 512.962 315.772 512.962" stroke="#FF0000" stroke-width="5"/>
<path d="M315.771 512.962C297.974 512.962 283.882 498.75 283.882 481.09" stroke="#FF0000" stroke-width="5"/>
</svg>
