<svg width="340" height="108" viewBox="0 0 340 108" fill="none" xmlns="http://www.w3.org/2000/svg">
<path d="M14.7907 77.6859C16.3993 76.0702 18.094 74.9775 19.8746 74.4079C21.6552 73.81 23.4158 73.7566 25.1564 74.2477C26.911 74.7247 28.5467 75.7181 30.0632 77.228C31.5797 78.7379 32.5804 80.3691 33.065 82.1216C33.5497 83.8459 33.497 85.5997 32.9069 87.3829C32.3168 89.1378 31.2175 90.8231 29.6088 92.4389L25.0157 97.0523L10.1976 82.2993L14.7907 77.6859ZM28.0143 90.8514C29.9193 88.938 30.8696 86.9772 30.8651 84.9691C30.8465 82.9468 29.9231 81.0255 28.0947 79.2052C26.2522 77.3707 24.3056 76.4487 22.255 76.4391C20.2185 76.4153 18.2548 77.353 16.3639 79.2522L13.6969 81.931L25.3473 93.5302L28.0143 90.8514Z" fill="#DCDC22"/>
<path d="M50.2568 74.3942C49.036 75.3329 47.7128 75.9088 46.2872 76.1219C44.8775 76.3228 43.4972 76.1353 42.1462 75.5595C40.7988 74.9556 39.6071 73.9798 38.5708 72.6321C37.5468 71.3003 36.9301 69.9076 36.7206 68.454C36.5148 66.9724 36.7041 65.578 37.2885 64.2709C37.8607 62.9479 38.7651 61.811 40.0018 60.8601C41.2385 59.9092 42.5696 59.3272 43.9952 59.1141C45.4085 58.8852 46.7907 59.0586 48.1417 59.6345C49.5086 60.1981 50.7101 61.1538 51.7463 62.5015C52.7826 63.8491 53.3956 65.2699 53.5856 66.7637C53.7791 68.2295 53.5819 69.63 52.9939 70.9651C52.4058 72.3003 51.4935 73.4433 50.2568 74.3942ZM48.7939 72.4916C49.5708 71.8942 50.1599 71.1511 50.5613 70.2622C50.9627 69.3733 51.0891 68.4058 50.9405 67.3595C50.8078 66.301 50.3392 65.2485 49.5346 64.2021C48.73 63.1557 47.8412 62.4263 46.8681 62.0139C45.8951 61.6015 44.9416 61.477 44.0075 61.6402C43.0612 61.7875 42.1996 62.1599 41.4227 62.7572C40.6299 63.3668 40.0408 64.1099 39.6553 64.9866C39.2734 65.8352 39.1647 66.7766 39.3291 67.8107C39.4935 68.8448 39.978 69.8851 40.7826 70.9315C41.5994 71.9938 42.4784 72.7433 43.4197 73.18C44.3769 73.6046 45.3207 73.7493 46.2512 73.6141C47.1694 73.4631 48.017 73.0889 48.7939 72.4916Z" fill="#DCDC22"/>
<path d="M75.2451 38.7717C77.0351 37.8796 78.7571 37.7028 80.4111 38.2415C82.0562 38.7624 83.3873 40.0431 84.4044 42.0836L88.7271 50.756L86.3106 51.9605L82.1619 43.6371C81.4303 42.1694 80.5058 41.2335 79.3882 40.8296C78.2618 40.4078 77.0631 40.5137 75.7922 41.1471C74.5035 41.7895 73.675 42.7053 73.3068 43.8944C72.9565 45.0746 73.165 46.4344 73.9323 47.9738L77.9873 56.1092L75.544 57.327L68.2101 42.6135L70.6534 41.3956L71.6973 43.4899C71.8059 42.4972 72.1693 41.5898 72.7874 40.7677C73.4235 39.9367 74.2428 39.2714 75.2451 38.7717Z" fill="#DCDC22"/>
<path d="M104.871 44.6935C103.416 45.2003 101.979 45.3306 100.559 45.0843C99.1576 44.8314 97.9064 44.2191 96.8052 43.2473C95.7164 42.2501 94.8922 40.9489 94.3327 39.3436C93.7798 37.7572 93.6327 36.2412 93.8913 34.7955C94.1622 33.3244 94.7807 32.0604 95.7467 31.0036C96.7061 29.9279 97.9224 29.1334 99.3955 28.62C100.869 28.1065 102.315 27.973 103.735 28.2193C105.149 28.4467 106.406 29.0463 107.508 30.018C108.628 30.9832 109.467 32.2684 110.027 33.8737C110.586 35.479 110.721 37.0205 110.431 38.4982C110.154 39.9504 109.526 41.2177 108.548 42.3C107.569 43.3822 106.344 44.1801 104.871 44.6935ZM104.081 42.4272C105.006 42.1047 105.799 41.5847 106.46 40.8673C107.12 40.1499 107.545 39.2712 107.733 38.2313C107.94 37.1849 107.827 36.0384 107.392 34.7919C106.958 33.5455 106.344 32.5734 105.55 31.8758C104.756 31.1782 103.89 30.7599 102.952 30.6209C102.008 30.463 101.073 30.5453 100.147 30.8678C99.2028 31.1969 98.4098 31.7169 97.768 32.4277C97.1385 33.1131 96.739 33.9724 96.5697 35.0057C96.4003 36.039 96.5329 37.1789 96.9673 38.4254C97.4083 39.6907 98.0068 40.6788 98.7629 41.3895C99.5378 42.0937 100.388 42.5281 101.314 42.6926C102.233 42.8382 103.155 42.7497 104.081 42.4272Z" fill="#DCDC22"/>
<path d="M121.681 24.7393L123.902 34.1715C124.085 34.9502 124.381 35.4661 124.79 35.7191C125.194 35.9527 125.805 35.9732 126.623 35.7807L128.58 35.3202L129.109 37.5687L126.714 38.1324C125.235 38.4807 124.045 38.4012 123.145 37.894C122.245 37.3868 121.611 36.3545 121.245 34.797L119.024 25.3649L116.951 25.8529L116.435 23.6628L118.509 23.1747L117.56 19.1449L120.217 18.5193L121.166 22.5492L125.342 21.5661L125.857 23.7563L121.681 24.7393Z" fill="#DCDC22"/>
<path d="M169.123 16.5457C170.403 16.5034 171.551 16.7356 172.568 17.2423C173.585 17.729 174.4 18.4925 175.015 19.5327C175.63 20.573 175.962 21.8527 176.012 23.3719L176.332 33.0566L173.634 33.1458L173.327 23.8509C173.273 22.2117 172.822 20.976 171.974 20.1435C171.145 19.2904 170.041 18.8866 168.662 18.9322C167.243 18.9791 166.128 19.4762 165.319 20.4234C164.509 21.3507 164.133 22.6738 164.19 24.3929L164.489 33.4479L161.79 33.5371L161.483 24.2422C161.429 22.6031 160.978 21.3673 160.13 20.5348C159.301 19.6817 158.197 19.278 156.818 19.3235C155.399 19.3704 154.285 19.8675 153.476 20.8147C152.666 21.742 152.289 23.0651 152.346 24.7842L152.645 33.8393L149.917 33.9294L149.374 17.4984L152.102 17.4082L152.181 19.7769C152.692 18.8996 153.39 18.2161 154.274 17.7267C155.178 17.2365 156.18 16.9733 157.28 16.937C158.659 16.8914 159.888 17.161 160.968 17.7456C162.048 18.3303 162.868 19.2137 163.427 20.3959C163.849 19.2213 164.579 18.2967 165.617 17.6221C166.655 16.9474 167.824 16.5886 169.123 16.5457Z" fill="#DCDC22"/>
<path d="M188.853 15.1478C188.335 15.1003 187.914 14.8809 187.588 14.4895C187.262 14.0981 187.123 13.6435 187.171 13.1257C187.218 12.6078 187.438 12.1861 187.829 11.8605C188.221 11.5349 188.675 11.3958 189.193 11.4433C189.691 11.489 190.093 11.7066 190.398 12.0962C190.724 12.4875 190.863 12.9421 190.816 13.46C190.768 13.9778 190.549 14.3995 190.157 14.7251C189.786 15.0526 189.351 15.1935 188.853 15.1478ZM189.924 17.9272L188.422 34.2985L185.704 34.0491L187.205 17.6778L189.924 17.9272Z" fill="#DCDC22"/>
<path d="M204.179 36.7565C202.939 36.5336 201.864 36.127 200.954 35.5367C200.048 34.9268 199.377 34.1965 198.94 33.3458C198.507 32.4755 198.35 31.543 198.468 30.5481L201.243 31.047C201.177 31.8682 201.432 32.5949 202.01 33.227C202.607 33.8626 203.456 34.2795 204.559 34.4776C205.582 34.6616 206.43 34.5803 207.102 34.2337C207.774 33.8871 208.172 33.3693 208.295 32.6804C208.423 31.9717 208.202 31.3935 207.632 30.9456C207.066 30.4781 206.153 29.9585 204.895 29.3868C203.75 28.856 202.823 28.3641 202.112 27.9112C201.424 27.4421 200.861 26.8431 200.423 26.1141C200.008 25.369 199.895 24.4748 200.082 23.4315C200.231 22.6047 200.613 21.8911 201.229 21.2906C201.845 20.6901 202.641 20.2744 203.617 20.0434C204.597 19.7928 205.668 19.7719 206.829 19.9806C208.62 20.3026 209.986 21.0154 210.925 22.119C211.865 23.2227 212.233 24.5689 212.028 26.1579L209.341 25.6749C209.434 24.8179 209.212 24.0768 208.674 23.4518C208.156 22.8303 207.375 22.4258 206.332 22.2383C205.367 22.0649 204.562 22.1336 203.917 22.4444C203.272 22.7551 202.889 23.2452 202.769 23.9144C202.674 24.4459 202.761 24.9189 203.032 25.3334C203.326 25.7317 203.71 26.0851 204.183 26.3936C204.679 26.686 205.367 27.0433 206.246 27.4655C207.35 27.9892 208.239 28.474 208.91 28.9199C209.586 29.346 210.124 29.9102 210.527 30.6125C210.948 31.3182 211.081 32.165 210.923 33.1527C210.764 34.0385 210.375 34.7915 209.755 35.4117C209.136 36.0319 208.336 36.4673 207.356 36.7179C206.4 36.9524 205.341 36.9653 204.179 36.7565Z" fill="#DCDC22"/>
<path d="M224.424 41.5365C223.215 41.1827 222.189 40.664 221.347 39.9801C220.511 39.2771 219.921 38.4794 219.578 37.5872C219.24 36.6757 219.183 35.7317 219.406 34.7551L222.113 35.5467C221.959 36.3562 222.136 37.1059 222.643 37.7959C223.168 38.4915 223.969 38.9965 225.044 39.3109C226.042 39.6029 226.894 39.6123 227.599 39.3393C228.304 39.0662 228.754 38.5938 228.951 37.9219C229.153 37.2309 228.995 36.6323 228.476 36.1263C227.963 35.6011 227.111 34.9873 225.92 34.2848C224.839 33.6352 223.969 33.0473 223.31 32.5212C222.676 31.9815 222.18 31.326 221.823 30.5545C221.49 29.7694 221.472 28.8682 221.769 27.8508C222.005 27.0446 222.461 26.3758 223.138 25.8443C223.814 25.3128 224.65 24.9842 225.645 24.8586C226.646 24.7137 227.713 24.807 228.845 25.1382C230.592 25.6491 231.874 26.5033 232.691 27.7007C233.507 28.8982 233.73 30.2759 233.357 31.834L230.737 31.0677C230.921 30.2254 230.779 29.4649 230.31 28.7861C229.861 28.113 229.128 27.6276 228.111 27.3301C227.17 27.0549 226.362 27.0375 225.688 27.2778C225.013 27.5181 224.58 27.9646 224.39 28.6172C224.238 29.1355 224.275 29.6151 224.5 30.0561C224.75 30.4835 225.094 30.8758 225.531 31.2329C225.993 31.5765 226.639 32.0049 227.468 32.5184C228.511 33.1568 229.342 33.7334 229.963 34.2483C230.589 34.7439 231.064 35.3623 231.39 36.1033C231.734 36.85 231.775 37.706 231.514 38.6714C231.261 39.5353 230.794 40.2425 230.112 40.7932C229.43 41.3439 228.588 41.6916 227.587 41.8365C226.611 41.9677 225.557 41.8677 224.424 41.5365Z" fill="#DCDC22"/>
<path d="M259.779 39.6248L255.611 48.3727C255.267 49.095 255.175 49.6827 255.336 50.1358C255.505 50.571 255.969 50.9692 256.728 51.3305L258.542 52.195L257.549 54.2804L255.328 53.2223C253.956 52.5686 253.077 51.7623 252.692 50.8034C252.307 49.8446 252.458 48.643 253.147 47.1985L257.314 38.4506L255.391 37.5345L256.359 35.5032L258.282 36.4194L260.063 32.6819L262.527 33.8561L260.747 37.5936L264.62 39.4387L263.652 41.47L259.779 39.6248Z" fill="#DCDC22"/>
<path d="M280.56 48.0281C281.618 48.675 282.433 49.4896 283.004 50.4719C283.586 51.4372 283.839 52.5181 283.764 53.7146C283.706 54.9215 283.281 56.1733 282.488 57.4701L277.433 65.7373L275.129 64.3288L279.981 56.3944C280.836 54.9953 281.138 53.7149 280.887 52.5535C280.647 51.3749 279.921 50.4153 278.709 49.6745C277.481 48.9234 276.265 48.7074 275.062 49.0266C273.876 49.3563 272.834 50.2548 271.937 51.7223L267.195 59.4775L264.866 58.0534L276.446 39.1132L278.776 40.5373L274.55 47.4479C275.449 47.013 276.419 46.8444 277.461 46.9423C278.52 47.0507 279.553 47.4126 280.56 48.0281Z" fill="#DCDC22"/>
<path d="M298.284 57.2258C297.868 56.913 297.625 56.5046 297.554 56.0005C297.483 55.4963 297.604 55.0366 297.916 54.6211C298.229 54.2057 298.638 53.9624 299.142 53.8914C299.646 53.8203 300.106 53.9411 300.521 54.2539C300.921 54.5546 301.148 54.951 301.203 55.4431C301.274 55.9473 301.153 56.407 300.84 56.8225C300.528 57.2379 300.119 57.4812 299.615 57.5522C299.127 57.6353 298.683 57.5265 298.284 57.2258ZM297.732 60.1528L287.844 73.2868L285.663 71.6448L295.551 58.5108L297.732 60.1528Z" fill="#DCDC22"/>
<path d="M299.953 83.665C299.016 82.8232 298.315 81.9119 297.852 80.9313C297.402 79.9358 297.215 78.9615 297.291 78.0085C297.381 77.0407 297.737 76.1647 298.361 75.3805L300.459 77.2647C299.97 77.9283 299.806 78.6807 299.964 79.5219C300.137 80.3765 300.641 81.1779 301.474 81.9263C302.248 82.6211 303.012 82.9979 303.765 83.0565C304.519 83.1151 305.13 82.884 305.598 82.3632C306.079 81.8275 306.195 81.2194 305.946 80.5388C305.71 79.8433 305.207 78.9214 304.437 77.7732C303.744 76.7199 303.213 75.8137 302.847 75.0545C302.508 74.2937 302.345 73.4882 302.356 72.6378C302.395 71.786 302.769 70.9657 303.477 70.177C304.038 69.552 304.739 69.1462 305.578 68.9594C306.418 68.7726 307.314 68.8378 308.266 69.1549C309.231 69.4571 310.152 70.0024 311.03 70.7908C312.384 72.0068 313.171 73.3312 313.389 74.7641C313.608 76.1969 313.213 77.5353 312.203 78.7792L310.172 76.9551C310.702 76.2752 310.902 75.5279 310.774 74.7134C310.66 73.9123 310.209 73.1576 309.42 72.4494C308.691 71.7946 307.97 71.4297 307.258 71.3547C306.546 71.2796 305.962 71.4951 305.508 72.001C305.147 72.4028 304.973 72.8512 304.986 73.3462C305.026 73.8397 305.167 74.3421 305.406 74.8532C305.675 75.3628 306.072 76.0283 306.597 76.8498C307.261 77.8763 307.762 78.7558 308.099 79.4883C308.449 80.206 308.61 80.9692 308.583 81.7779C308.57 82.6 308.237 83.3897 307.584 84.1471C306.983 84.8168 306.256 85.2524 305.403 85.454C304.55 85.6557 303.64 85.6054 302.675 85.3032C301.738 84.9995 300.831 84.4534 299.953 83.665Z" fill="#DCDC22"/>
<path d="M328.643 82.2715L317.444 92.2565L315.89 90.5885L326.639 80.1206L328.643 82.2715ZM312.294 95.6622C311.939 95.2817 311.771 94.8371 311.789 94.3283C311.807 93.8195 312.006 93.3879 312.386 93.0334C312.767 92.6788 313.211 92.5106 313.72 92.5285C314.229 92.5464 314.661 92.7456 315.015 93.126C315.356 93.4918 315.511 93.9218 315.479 94.416C315.461 94.9248 315.262 95.3564 314.882 95.7109C314.501 96.0654 314.057 96.2337 313.548 96.2158C313.053 96.2125 312.635 96.028 312.294 95.6622Z" fill="#DCDC22"/>
</svg>
